HIERARCHY
ROOT Hips
{
	OFFSET	0.00	0.00	0.00
	CHANNELS 6 Xposition Yposition Zposition Zrotation Xrotation Yrotation
	JOINT Spine
	{
		OFFSET	 0.00	0.01	 0.00
		CHANNELS 3 Zrotation Xrotation Yrotation
		JOINT Spine1
		{
			OFFSET	 0.00	 2.45913012437421	 0.00
			CHANNELS 3 Zrotation Xrotation Yrotation
            JOINT Neck
            {
                OFFSET	 0.00	 2.48462964506057	 0.00
                CHANNELS 3 Zrotation Xrotation Yrotation
                JOINT Head
                {
                    OFFSET	 0.00	 0.927524780924562	 0.00
                    CHANNELS 3 Zrotation Xrotation Yrotation
                    End Site 
                    {
                        OFFSET	 0.00	 1.14999962169752	 0.00
                    }
                }
            }
			JOINT LeftShoulder
			{
				OFFSET	 0.00	 2.48462964506057	 0.00
				CHANNELS 3 Zrotation Xrotation Yrotation
				JOINT LeftUpArm
				{
					OFFSET	 0.00	 1.24881979654096	 0.00
					CHANNELS 3 Zrotation Xrotation Yrotation
					JOINT LeftForeArm
					{
						OFFSET	 0.00	2.59758046908119	 0.00
						CHANNELS 3 Zrotation Xrotation Yrotation
						JOINT LeftHand
						{
							OFFSET	 0.00	2.45542024364365	 0.00
							CHANNELS 3 Zrotation Xrotation Yrotation
							JOINT LeftHandThumb 
							{
								OFFSET	 0.00	0.00	 0.00
								CHANNELS 3 Zrotation Xrotation Yrotation
								End Site
								{
									OFFSET	 0.00	0.00	1.00000003353624
								}
							}
							JOINT L_Wrist_End 
							{
								OFFSET	 0.00	0.99999967115358	 0.00
								CHANNELS 3 Zrotation Xrotation Yrotation
								End Site 
								{
									OFFSET	 0.00	 0.00	 0.00
								}
							}
						}
					}
				}
			}
			JOINT RightShoulder
			{
				OFFSET	 0.00	 2.48462964506057	 0.00
				CHANNELS 3 Zrotation Xrotation Yrotation
				JOINT RightUpArm
				{
					OFFSET	 0.00	 1.24881979654096	 0.00
					CHANNELS 3 Zrotation Xrotation Yrotation
					JOINT RightForeArm
					{
						OFFSET	 0.00	2.59758046908119	 0.00
						CHANNELS 3 Zrotation Xrotation Yrotation
						JOINT RightHand
						{
							OFFSET	 0.00	2.45542024364365	 0.00
							CHANNELS 3 Zrotation Xrotation Yrotation
							JOINT RightHandThumb 
							{
								OFFSET	 0.00	0.00	 0.00
								CHANNELS 3 Zrotation Xrotation Yrotation
								End Site
								{
									OFFSET	 0.00	0.00	1.00000003353624
								}
							}
							JOINT R_Wrist_End 
							{
								OFFSET	 0.00	0.99999967115358	 0.00
								CHANNELS 3 Zrotation Xrotation Yrotation
								End Site 
								{
									OFFSET	 0.00	 0.00	 0.00
								}
							}
						}
					}
				}
			}
		}
	}
	JOINT LeftUpLeg
	{
		OFFSET	 1.2719394002717	 0.00	 0.00
		CHANNELS 3 Zrotation Xrotation Yrotation
		JOINT LeftLowLeg
		{
			OFFSET	 0.00	-4.3429100912261	 0.00
			CHANNELS 3 Zrotation Xrotation Yrotation
			JOINT LeftFoot
			{
				OFFSET	 0.00	-4.48767017425826	 0.00
				CHANNELS 3 Zrotation Xrotation Yrotation
				JOINT LeftToeBase
                {
                    OFFSET	 0.00	0.00	 1.51507020887566
                    CHANNELS 3 Zrotation Xrotation Yrotation
                    End Site 
                    {
                        OFFSET	 0.00	0.00	 0.75000010571191
                    }
                }
			}
		}
	}
	JOINT RightUpLeg
	{
		OFFSET	 -1.2719393604653	 0.00	 0.00
		CHANNELS 3 Zrotation Xrotation Yrotation
		JOINT RightLowLeg
		{
			OFFSET	 0.00	-4.3429100912261	 0.00
			CHANNELS 3 Zrotation Xrotation Yrotation
			JOINT RightFoot
			{
				OFFSET	 0.00	-4.48767017425826	 0.00
				CHANNELS 3 Zrotation Xrotation Yrotation
				JOINT RightToeBase
                {
                    OFFSET	 0.00	0.00	 1.51507020887566
                    CHANNELS 3 Zrotation Xrotation Yrotation
                    End Site 
                    {
                        OFFSET	 0.00	0.00	 0.749999965609858
                    }
                }   
			}
		}
	}
}
MOTION 
Frames:	16 
Frame Time: 0.02 
 -2.9110400390625 -2.867460021972656 9.311690063476563 125.463 86.3238 957.365 3.04672 -20.8707 1.16849 -8.64845 19.8073 4.73372 22.2392 54.3313 349.437 -52.6593 -80.6645 -764.537 -116.5784 -2.38036 365.165 -44.7512 6.67765 18.5986 0.0 21.5029 0.0 4.91999 -17.0881 -8.21679 0.0 0.0 0.0 0.0 0.0 0.0 121.5519 -6.22784 -358.826 48.1572 0.630228 -373.734 0.0 20.8449 0.0 4.90195 -9.19146 16.8642 0.0 0.0 0.0 0.0 0.0 0.0 -3.11985 -2.89495 -9.69085 0.0 16.1685 0.0 -16.971 -7.1793995 12.6612 0.0 -19.946579 0.0 2.72274 -4.25474 17.8846 0.0 21.0452 0.0 30.8109 -14.3372 -7.29834 0.0 -15.752469 0.0 
  -2.9129098510742186 -2.866300048828125 9.311380004882812 125.03 86.3423 957.851 3.07137 -20.867 1.19261 -8.663 19.8565 4.7464 22.2207 54.1595 349.384 -52.5731 -80.6461 -764.403 -116.5867 -2.35685 365.211 -44.6642 6.84558 18.6593 0.0 21.4492 0.0 4.97614 -17.0203 -7.90933 0.0 0.0 0.0 0.0 0.0 0.0 121.5579 -6.17878 -358.779 48.1119 0.657829 -373.848 0.0 20.8017 0.0 4.99867 -9.25016 16.7322 0.0 0.0 0.0 0.0 0.0 0.0 -3.12259 -2.91227 -9.76081 0.0 16.2413 0.0 -16.9929 -7.2089996 12.6782 0.0 -19.91025 0.0 2.7395 -4.23276 17.8629 0.0 21.0687 0.0 30.7803 -14.353001 -7.33632 0.0 -15.767696 0.0 
  -2.9147000122070312 -2.8632998657226563 9.310980224609375 123.974 86.3828 958.937 3.11577 -20.7649 1.24378 -8.70312 19.8811 4.74611 22.2506 53.944 349.285 -52.4787 -80.6653 -764.184 -116.5804 -2.35005 365.212 -44.5432 6.97482 18.9832 0.0 21.5342 0.0 5.13078 -16.9622 -7.28627 0.0 0.0 0.0 0.0 0.0 0.0 121.5702 -6.18555 -358.815 48.0577 0.791885 -374.079 0.0 20.8372 0.0 4.83877 -9.19434 16.279 0.0 0.0 0.0 0.0 0.0 0.0 -3.12881 -2.87947 -9.84472 0.0 16.2881 0.0 -17.0087 -7.237499 12.738 0.0 -19.89609 0.0 2.75678 -4.20208 17.847 0.0 21.1371 0.0 30.7635 -14.357901 -7.34375 0.0 -15.7781925 0.0 
  -2.9164300537109376 -2.860870056152344 9.310650024414063 123.683 86.3917 959.302 3.15131 -20.7456 1.27723 -8.72979 19.9393 4.75556 22.1867 53.7232 349.291 -52.3804 -80.6732 -764.053 -116.5693 -2.27861 365.179 -44.4266 7.02932 19.4831 0.0 21.6754 0.0 5.29018 -16.8225 -6.76909 0.0 0.0 0.0 0.0 0.0 0.0 121.5842 -6.15255 -358.851 47.9717 0.913186 -374.334 0.0 20.8516 0.0 4.77505 -9.13918 16.2728 0.0 0.0 0.0 0.0 0.0 0.0 -3.13414 -2.91366 -9.9397 0.0 16.3525 0.0 -16.9917 -7.247999 12.7653 0.0 -19.937191 0.0 2.78153 -4.20019 17.87 0.0 21.1722 0.0 30.7801 -14.415199 -7.41408 0.0 -15.77235 0.0 
  -2.9188800048828125 -2.8575799560546873 9.310499877929688 123.236 86.408 959.853 3.14263 -20.7184 1.247 -8.71096 20.0248 4.75809 22.0375 53.5161 349.415 -52.2829 -80.6912 -763.921 -116.5581 -2.23221 365.144 -44.337 7.10964 20.0331 0.0 21.8516 0.0 5.57272 -16.6582 -6.12015 0.0 0.0 0.0 0.0 0.0 0.0 121.5806 -6.12208 -358.884 47.8873 1.06838 -374.673 0.0 20.9041 0.0 4.72991 -9.17642 16.5642 0.0 0.0 0.0 0.0 0.0 0.0 -3.13264 -2.94731 -10.0377 0.0 16.4199 0.0 -17.0396 -7.25 12.7533 0.0 -19.899231 0.0 2.80103 -4.19584 17.7918 0.0 21.2116 0.0 30.7812 -14.438 -7.44083 0.0 -15.769821 0.0 
  -2.920989990234375 -2.8492498779296875 9.30968994140625 119.417 86.4904 963.548 3.17046 -20.3446 1.33384 -8.69357 19.9923 4.80476 21.6869 53.4287 349.803 -52.9415 -80.7525 -764.639 -116.6054 -2.19878 365.16 -44.2152 7.21549 20.4316 0.0 22.0406 0.0 5.92109 -16.5575 -5.38858 0.0 0.0 0.0 0.0 0.0 0.0 121.599304 -6.05709 -358.922 47.7493 1.19595 -374.881 0.0 20.9783 0.0 4.79842 -9.48595 14.1343 0.0 0.0 0.0 0.0 0.0 0.0 -3.16189 -2.77189 -9.92692 0.0 16.4817 0.0 -17.0395 -7.2462006 12.7676 0.0 -19.88005 0.0 2.77064 -4.08192 17.7314 0.0 21.3301 0.0 30.7847 -14.3811 -7.28713 0.0 -15.776269 0.0 
  -2.922049865722656 -2.845159912109375 9.309580078125 121.416 86.4178 961.69 3.14394 -20.4654 1.26631 -8.61985 20.0217 4.79719 21.7027 53.1991 349.653 -52.9691 -80.7091 -764.544 -116.613 -2.12126 365.203 -44.1788 7.26987 20.8524 0.0 22.227 0.0 6.23751 -16.4203 -5.11083 0.0 0.0 0.0 0.0 0.0 0.0 121.5579 -6.01485 -358.988 47.6515 1.24566 -375.106 0.0 21.1712 0.0 4.58471 -9.33024 15.0764 0.0 0.0 0.0 0.0 0.0 0.0 -3.18021 -3.00876 -10.0769 0.0 16.5922 0.0 -17.0387 -7.2360992 12.7649 0.0 -19.88763 0.0 2.77696 -4.25644 17.68 0.0 21.3816 0.0 30.802 -14.4237 -7.32923 0.0 -15.766379 0.0 
  -2.9238800048828124 -2.8419198608398437 9.309719848632813 121.873 86.4172 961.361 3.09409 -20.4657 1.16732 -8.47444 20.0536 4.7949 21.2407 53.1899 350.154 -53.8331 -80.7248 -765.447 -116.618 -2.10668 365.169 -44.2156 7.30135 21.1619 0.0 22.4005 0.0 6.54467 -16.3355 -4.57557 0.0 0.0 0.0 0.0 0.0 0.0 121.496 -6.01809 -359.038 47.5598 1.34169 -375.34 0.0 21.3161 0.0 4.4968 -9.34095 14.5727 0.0 0.0 0.0 0.0 0.0 0.0 -3.1692 -3.11665 -10.1876 0.0 16.6891 0.0 -17.0609 -7.231001 12.7377 0.0 -19.90449 0.0 2.78835 -4.27993 17.5332 0.0 21.359 0.0 30.7663 -14.4079 -7.34965 0.0 -15.773468 0.0 
  -2.92531005859375 -2.836919860839844 9.30948974609375 122.352 86.3875 960.963 3.03046 -20.4359 1.08805 -8.33338 20.0287 4.81052 21.0214 53.1087 350.316 -54.0434 -80.6606 -765.504 -116.6141 -2.07227 365.199 -44.2804 7.31845 21.2172 0.0 22.5672 0.0 6.84302 -16.2783 -4.2502 0.0 0.0 0.0 0.0 0.0 0.0 121.4498 -6.03848 -359.058 47.4629 1.4208 -375.531 0.0 21.4346 0.0 4.38908 -9.32671 13.8443 0.0 0.0 0.0 0.0 0.0 0.0 -3.18985 -3.25389 -10.3203 0.0 16.8094 0.0 -17.0746 -7.2348003 12.7585 0.0 -19.90451 0.0 2.78614 -4.36912 17.4528 0.0 21.4135 0.0 30.7964 -14.424 -7.32693 0.0 -15.766629 0.0 
  -2.927510070800781 -2.8309698486328125 9.309639892578126 125.311 86.275 958.226 2.84085 -20.6129 0.80641 -7.97405 20.0536 4.824 20.1898 53.0404 351.08 -54.6667 -80.4571 -766.048 -116.5706 -2.11405 365.321 -44.5222 7.41866 21.1866 0.0 22.8308 0.0 7.51344 -16.2161 -3.67093 0.0 0.0 0.0 0.0 0.0 0.0 121.2835 -6.04724 -358.97 47.3284 1.43707 -375.986 0.0 21.6176 0.0 4.23878 -9.38022 13.3057 0.0 0.0 0.0 0.0 0.0 0.0 -3.21212 -3.63308 -10.5479 0.0 17.0099 0.0 -17.1893 -7.2423 12.7131 0.0 -19.96267 0.0 2.80078 -4.61018 17.2905 0.0 21.431 0.0 30.7616 -14.4785 -7.4405 0.0 -15.712089 0.0 
  -2.929179992675781 -2.8233599853515625 9.310009765625 126.983 86.2106 956.842 2.71328 -20.5634 0.59778 -7.74806 19.885 4.73896 19.3927 53.2068 351.952 -55.5384 -80.3483 -766.817 -116.5707 -2.2254 365.373 -44.6032 7.43513 21.2453 0.0 23.0863 0.0 7.89372 -16.2067 -3.80053 0.0 0.0 0.0 0.0 0.0 0.0 121.2543 -6.10295 -358.897 47.1567 1.34968 -376.258 0.0 21.8601 0.0 4.26736 -9.47831 13.2754 0.0 0.0 0.0 0.0 0.0 0.0 -3.22419 -3.94958 -10.6908 0.0 17.2185 0.0 -17.2126 -7.182699 12.6063 0.0 -19.946869 0.0 2.75257 -4.77688 16.6929 0.0 21.4293 0.0 30.6441 -14.3972 -7.33587 0.0 -15.592816 0.0 
  -2.9273699951171874 -2.81614013671875 9.311069946289063 132.354 85.9779 951.943 2.68656 -20.8456 0.444015 -7.63438 19.7222 4.59606 18.6011 53.4513 352.813 -56.4151 -80.2034 -767.63 -116.5391 -2.33818 365.545 -44.6553 7.55775 21.2907 0.0 23.2779 0.0 8.32746 -16.0537 -3.90919 0.0 0.0 0.0 0.0 0.0 0.0 121.166 -6.12887 -358.843 47.1099 1.1626 -376.382 0.0 22.1091 0.0 4.05779 -9.22979 13.2955 0.0 0.0 0.0 0.0 0.0 0.0 -3.24054 -4.59391 -10.888 0.0 17.4281 0.0 -17.0539 -7.0517006 12.4805 0.0 -19.97465 0.0 2.60133 -5.17231 15.401 0.0 21.2623 0.0 30.5616 -14.112801 -6.87354 0.0 -15.535706 0.0 
  -2.92218994140625 -2.80364990234375 9.3125 138.033 85.6847 946.75 2.92891 -21.0329 0.610311 -7.80003 19.3723 4.39935 18.0216 53.8647 353.497 -57.4889 -80.1132 -768.492 -116.4768 -2.39817 365.729 -44.6133 7.67533 21.2985 0.0 23.4078 0.0 8.65237 -15.8886 -3.47133 0.0 0.0 0.0 0.0 0.0 0.0 121.247 -6.22092 -358.448 47.0109 0.592876 -376.647 0.0 22.5222 0.0 4.00576 -9.27416 13.4073 0.0 0.0 0.0 0.0 0.0 0.0 -3.25773 -5.35362 -11.0067 0.0 17.6625 0.0 -16.8998 -6.926901 12.277 0.0 -20.03956 0.0 2.35755 -5.64091 13.5626 0.0 20.9802 0.0 30.5654 -13.579399 -5.98362 0.0 -15.490554 0.0 
  -2.916510009765625 -2.791029968261719 9.312930297851562 142.152 85.2513 943.239 2.9919 -21.332 0.68857 -7.91096 19.1857 4.35937 17.2464 54.2619 354.303 -58.6699 -79.9066 -769.436 -116.4542 -2.46833 366.046 -44.5353 8.0696 21.3557 0.0 23.4564 0.0 8.78927 -15.5563 -3.49831 0.0 0.0 0.0 0.0 0.0 0.0 121.1568 -6.3079 -358.036 47.096 0.032046 -376.801 0.0 22.759 0.0 4.12888 -9.28414 13.7017 0.0 0.0 0.0 0.0 0.0 0.0 -3.38094 -6.14407 -11.1439 0.0 17.8976 0.0 -16.925 -6.7903996 11.8002 0.0 -20.24521 0.0 2.1413 -6.29771 12.5494 0.0 21.1742 0.0 30.41 -13.5014 -5.7468 0.0 -15.517045 0.0 
  -2.9066400146484375 -2.780669860839844 9.312949829101562 144.783 84.9836 941.653 3.11274 -21.5713 0.724436 -8.07147 19.1503 4.2184 16.6026 54.7558 354.837 -60.1351 -79.5806 -770.676 -116.4022 -2.42144 366.313 -44.4529 8.46877 21.5877 0.0 23.4387 0.0 8.96579 -15.4542 -1.88353 0.0 0.0 0.0 0.0 0.0 0.0 121.0072 -6.38788 -357.843 47.2175 -0.535468 -376.89 0.0 23.1585 0.0 4.1607 -9.26528 13.966 0.0 0.0 0.0 0.0 0.0 0.0 -3.50085 -6.79897 -11.4755 0.0 18.1894 0.0 -17.1321 -6.7542 11.0403 0.0 -20.59201 0.0 1.97784 -6.68006 11.5995 0.0 21.3915 0.0 30.409 -13.6777 -5.78923 0.0 -15.522752 0.0 
  -2.8922299194335936 -2.7749899291992186 9.312570190429687 147.541 84.7387 940.122 3.61159 -21.6568 1.15688 -8.71808 18.677 3.83547 16.4893 55.9714 354.939 -62.1921 -79.3231 -772.304 -116.1479 -2.50023 366.944 -44.2515 9.01913 21.9238 0.0 23.3273 0.0 9.09529 -15.2133 -0.704074 0.0 0.0 0.0 0.0 0.0 0.0 121.1693 -6.50462 -358.3 47.252 -0.919553 -376.668 0.0 23.4445 0.0 4.25794 -9.02064 14.54 0.0 0.0 0.0 0.0 0.0 0.0 -3.67277 -7.48681 -12.1183 0.0 18.6289 0.0 -17.5846 -7.0457993 10.4629 0.0 -20.982029 0.0 1.74657 -6.92839 10.1825 0.0 21.4263 0.0 30.4374 -13.7425 -5.60938 0.0 -15.540327 0.0 
